<svg xmlns="http://www.w3.org/2000/svg" viewBox="0 0 243.5 56.34"><title>Revolut logo - Brandlogos.net</title><path d="M420.26,376.35a22.47,22.47,0,0,0-29.51,0c-4.11,3.63-6.19,8.68-6.19,15.15s2.09,11.52,6.19,15.23a22.71,22.71,0,0,0,29.51,0c4.18-3.71,6.27-8.76,6.27-15.23S424.45,380,420.26,376.35Zm-22.53,23.43a11.12,11.12,0,0,1-3.26-8.28,10.79,10.79,0,0,1,3.26-8.21,10.59,10.59,0,0,1,7.74-3.16,10.77,10.77,0,0,1,7.82,3.16,10.6,10.6,0,0,1,3.33,8.21,10.86,10.86,0,0,1-3.33,8.28,11,11,0,0,1-7.82,3.08A10.84,10.84,0,0,1,397.73,399.78Zm43.45,11.28V356.92h-9.76v54.14Zm31.49-39.14v21.6c0,5.21-2.76,8.66-8,8.66s-8-3.45-8-8.66v-21.6h-9.78v23.26c0,9,5.58,17,17.81,17h.08c12.16,0,17.72-8.14,17.72-17V371.93Zm-98.49,0-9.76,26.51-9.76-26.51H344.29l15.57,39.14H369l15.57-39.14Zm-29.85,18.46a19.68,19.68,0,0,0-5.27-14,17.62,17.62,0,0,0-13.47-5.52,19.87,19.87,0,0,0-14.41,5.84c-3.88,3.87-5.81,8.76-5.81,14.83s1.94,11,5.73,14.91a19,19,0,0,0,14,5.76c8.45,0,14.41-3.79,18-11.44l-7.28-4.26c-2.4,4.81-5.89,7.18-10.61,7.18-5.81,0-9.91-3.79-10.53-9.78h29.58v-3.47Zm-19.05-12c5.5,0,9.14,3.16,10.07,8.21h-20.6c1.48-4.66,5.5-8.21,10.53-8.21Zm-19.9,32.67-13.09-23.35c8.28-3.08,12.39-8.44,12.39-16.25,0-9.55-7.43-15.63-19.28-15.63H262.25v55.23h10.22V388.66h8.68l12.54,22.41ZM285.4,365c6,0,9.06,2.45,9.06,7.26s-3,7.26-9.06,7.26H272.47V365ZM499,412.17a11.49,11.49,0,0,1-11.37-11.6V361.35h9.76v10.59h8.37v8h-8.37v19.94a3.37,3.37,0,0,0,3.34,3.4h5v8.84Z" transform="translate(-262.25 -355.83)"/></svg>